<svg width="23" height="20" viewBox="0 0 23 20" fill="none" xmlns="http://www.w3.org/2000/svg">
<path d="M22.8011 18.98L17.2105 14.1197C18.7101 12.6208 19.6181 10.6652 19.6181 8.52772C19.6181 3.82262 15.216 0 9.80905 0C4.39698 0 0 3.82705 0 8.52772C0 13.2284 4.40208 17.0554 9.80905 17.0554C12.2677 17.0554 14.5172 16.2661 16.2413 14.9623L21.8319 19.8226C21.9645 19.9379 22.143 20 22.3165 20C22.4899 20 22.6684 19.9424 22.8011 19.8226C23.0663 19.592 23.0663 19.2106 22.8011 18.98ZM1.37214 8.52772C1.37214 4.48337 5.15702 1.19734 9.80395 1.19734C14.456 1.19734 18.2358 4.4878 18.2358 8.52772C18.2358 12.5676 14.456 15.8625 9.80395 15.8625C5.15702 15.8625 1.37214 12.5721 1.37214 8.52772Z" fill="black"/>
</svg>
